<?xml version="1.0" encoding="UTF-8" standalone="no"?>
<svg width="23px" height="18px" viewBox="0 0 23 18" version="1.1" xmlns="http://www.w3.org/2000/svg" xmlns:xlink="http://www.w3.org/1999/xlink">
    <!-- Generator: Sketch 39.1 (31720) - http://www.bohemiancoding.com/sketch -->
    <title>Catalog</title>
    <desc>Created with Sketch.</desc>
    <defs></defs>
    <g id="320" stroke="none" stroke-width="1" fill="none" fill-rule="evenodd">
        <g id="Artboard" transform="translate(-181.000000, -55.000000)" fill="#F82969">
            <g id="Tab_bar" transform="translate(96.000000, 43.000000)">
                <g id="Catalog" transform="translate(64.000000, 0.000000)">
                    <g transform="translate(21.000000, 12.000000)" id="Shape">
                        <path d="M3,7 L1,7 C0.45,7 0,7.45 0,8 L0,10 C0,10.55 0.45,11 1,11 L3,11 C3.55,11 4,10.55 4,10 L4,8 C4,7.45 3.55,7 3,7 L3,7 Z M3,0 L1,0 C0.45,0 0,0.45 0,1 L0,3 C0,3.55 0.45,4 1,4 L3,4 C3.55,4 4,3.55 4,3 L4,1 C4,0.45 3.55,0 3,0 L3,0 Z M3,14 L1,14 C0.45,14 0,14.45 0,15 L0,17 C0,17.55 0.45,18 1,18 L3,18 C3.55,18 4,17.55 4,17 L4,15 C4,14.45 3.55,14 3,14 L3,14 Z M22.0555556,8 L6.94444444,8 C6.425,8 6,8.45 6,9 C6,9.55 6.425,10 6.94444444,10 L22.0555556,10 C22.575,10 23,9.55 23,9 C23,8.45 22.575,8 22.0555556,8 L22.0555556,8 Z M6.94444444,3 L22.0555556,3 C22.575,3 23,2.55 23,2 C23,1.45 22.575,1 22.0555556,1 L6.94444444,1 C6.425,1 6,1.45 6,2 C6,2.55 6.425,3 6.94444444,3 L6.94444444,3 Z M22.0555556,15 L6.94444444,15 C6.425,15 6,15.45 6,16 C6,16.55 6.425,17 6.94444444,17 L22.0555556,17 C22.575,17 23,16.55 23,16 C23,15.45 22.575,15 22.0555556,15 L22.0555556,15 Z"></path>
                    </g>
                </g>
            </g>
        </g>
    </g>
</svg>