<?xml version="1.0" encoding="UTF-8" standalone="no"?>
<svg width="20px" height="21px" viewBox="0 0 20 21" version="1.1" xmlns="http://www.w3.org/2000/svg" xmlns:xlink="http://www.w3.org/1999/xlink">
    <!-- Generator: sketchtool 39 (31667) - http://www.bohemiancoding.com/sketch -->
    <title>C3D144E8-2742-41E0-8D4E-B7A065783942</title>
    <desc>Created with sketchtool.</desc>
    <defs></defs>
    <g id="Native-iOS-v_0.2-(Light)---320" stroke="none" stroke-width="1" fill="none" fill-rule="evenodd">
        <g id="Login" transform="translate(-59.000000, -469.000000)" fill="#FFFFFF">
            <g id="icons" transform="translate(32.000000, 312.000000)">
                <g id="FB" transform="translate(0.000000, 144.000000)">
                    <path d="M46.0777778,34 L40.8888889,34 L40.8888889,26.0540541 L43.5277778,26.0540541 L43.9277778,22.6486486 L40.8888889,22.6486486 L40.8888889,20.8778378 C40.8888889,19.9697297 41.1277778,19.2432432 42.4055556,19.2432432 L44.2222222,19.2432432 L44.2222222,16.5359459 C43.6666667,16.4962162 42.8055556,16.4110811 41.6777778,16.4110811 C39.3333333,16.4110811 37.5555556,17.8754054 37.5555556,20.5656757 L37.5555556,22.6486486 L34.7777778,22.6486486 L34.7777778,26.0540541 L37.5555556,26.0540541 L37.5555556,34 L27.9333333,34 C27.3111111,34 27,33.5856757 27,32.95 L27,14.4132432 C27,13.7775676 27.3111111,13 27.9333333,13 L46.0777778,13 C46.6944444,13 47,13.7775676 47,14.4132432 L47,32.95 C47,33.5856757 46.6944444,34 46.0777778,34 Z" id="Path"></path>
                </g>
            </g>
        </g>
    </g>
</svg>