<?xml version="1.0" encoding="UTF-8" standalone="no"?>
<svg width="28px" height="19px" viewBox="0 0 28 19" version="1.1" xmlns="http://www.w3.org/2000/svg" xmlns:xlink="http://www.w3.org/1999/xlink">
    <!-- Generator: sketchtool 39 (31667) - http://www.bohemiancoding.com/sketch -->
    <title>F0D646DC-D1B8-4587-BB5B-B0FABA4C50CA</title>
    <desc>Created with sketchtool.</desc>
    <defs></defs>
    <g id="Native-iOS-v_0.2-(Light)---320" stroke="none" stroke-width="1" fill="none" fill-rule="evenodd">
        <g id="Login" transform="translate(-56.000000, -399.000000)" fill="#FFFFFF">
            <g id="icons" transform="translate(32.000000, 312.000000)">
                <g id="G+" transform="translate(0.000000, 72.000000)">
                    <g id="Logo" transform="translate(24.000000, 15.000000)">
                        <path d="M8.974,18.046 C4.018,18.046 0,13.979 0,9.016 C0,4.053 4.018,0 8.974,0 C11.298,0 13.419,0.882 15.008,2.331 C13.132,4.109 13.195,4.207 12.453,4.949 C11.536,4.179 10.528,3.626 8.974,3.626 C6.027,3.626 3.731,6.02 3.731,8.967 C3.731,11.914 6.027,14.378 8.974,14.378 C11.879,14.378 13.062,12.978 13.825,10.878 L9.079,10.878 L9.079,7.378 L17.591,7.378 C18.186,11.578 16.38,18.046 8.974,18.046 L8.974,18.046 Z" id="Path"></path>
                        <polygon id="Path" points="27.979 9.478 25.179 9.478 25.179 12.978 23.079 12.978 23.079 9.478 19.579 9.478 19.579 7.378 23.079 7.378 23.079 4.578 25.179 4.578 25.179 7.378 27.979 7.378"></polygon>
                    </g>
                </g>
            </g>
        </g>
    </g>
</svg>