<?xml version="1.0" encoding="UTF-8" standalone="no"?>
<svg width="26px" height="15px" viewBox="0 0 26 15" version="1.1" xmlns="http://www.w3.org/2000/svg" xmlns:xlink="http://www.w3.org/1999/xlink">
    <!-- Generator: sketchtool 39 (31667) - http://www.bohemiancoding.com/sketch -->
    <title>A229BCAA-37E4-459A-B03E-4FD086086C1B</title>
    <desc>Created with sketchtool.</desc>
    <defs></defs>
    <g id="Native-iOS-v_0.2-(Light)---320" stroke="none" stroke-width="1" fill="none" fill-rule="evenodd">
        <g id="Login" transform="translate(-56.000000, -329.000000)" fill="#FFFFFF">
            <g id="icons" transform="translate(32.000000, 312.000000)">
                <g id="Vk">
                    <path d="M38.2751033,31.937094 C38.2751033,31.937094 38.744412,31.8847828 38.9843765,31.6236898 C39.2049314,31.3837065 39.1978817,30.9333675 39.1978817,30.9333675 C39.1978817,30.9333675 39.1674856,28.8246254 40.1351258,28.5140915 C41.089399,28.2080017 42.3144906,30.5520978 43.6129174,31.4535165 C44.5948401,32.1354135 45.3410098,31.9861646 45.3410098,31.9861646 L48.8132166,31.937094 C48.8132166,31.937094 50.6294761,31.8237685 49.7682223,30.3796098 C49.6977253,30.261655 49.2665033,29.3113508 47.1864752,27.3588941 C45.0091245,25.3153326 45.3010005,25.6459578 47.9235809,22.1111112 C49.5207503,19.9583907 50.1591603,18.6442229 49.9596629,18.0813917 C49.7695956,17.5451327 48.5947675,17.6867895 48.5947675,17.6867895 L44.6853876,17.7112323 C44.6853876,17.7112323 44.3953427,17.6713277 44.1805557,17.8013186 C43.970438,17.9284394 43.8355781,18.2254558 43.8355781,18.2254558 C43.8355781,18.2254558 43.2165777,19.8911731 42.3916711,21.308019 C40.6508526,24.2972554 39.9546717,24.4554851 39.6701202,24.2695721 C39.0080891,23.836917 39.1735282,22.5318227 39.1735282,21.6043872 C39.1735282,18.7073667 39.6080462,17.4994878 38.3273809,17.1868243 C37.9024762,17.0831279 37.5894511,17.0145215 36.5026069,17.0033186 C35.10759,16.9889677 33.927177,17.0076701 33.2586456,17.3388508 C32.8138736,17.5591132 32.470727,18.0498198 32.6798377,18.0780586 C32.9382962,18.112871 33.5233299,18.2377697 33.8335167,18.6645919 C34.234251,19.2159424 34.2202432,20.453634 34.2202432,20.453634 C34.2202432,20.453634 34.4505029,23.8638596 33.6826348,24.2873486 C33.1557383,24.577884 32.4328235,23.9847771 30.8807905,21.2727436 C30.0857307,19.8835811 29.4852243,18.3478546 29.4852243,18.3478546 C29.4852243,18.3478546 29.3695909,18.0609302 29.1630438,17.9073297 C28.9125505,17.7212316 28.5625374,17.6622542 28.5625374,17.6622542 L24.8474363,17.6867895 C24.8474363,17.6867895 24.289869,17.7025292 24.0849699,17.9477899 C23.9026848,18.166108 24.0704127,18.6170952 24.0704127,18.6170952 C24.0704127,18.6170952 26.978735,25.4982829 30.2721358,28.9660045 C33.2922461,32.1457831 36.7210561,31.937094 36.7210561,31.937094 L38.2751033,31.937094 Z" id="Fill-4"></path>
                </g>
            </g>
        </g>
    </g>
</svg>