<?xml version="1.0" encoding="UTF-8"?>
<svg width="21px" height="20px" viewBox="0 0 21 20" version="1.1" xmlns="http://www.w3.org/2000/svg" xmlns:xlink="http://www.w3.org/1999/xlink">
    <!-- Generator: Sketch 43.1 (39012) - http://www.bohemiancoding.com/sketch -->
    <title>briefcase-2</title>
    <desc>Created with Sketch.</desc>
    <defs>
        <rect id="path-1" x="0" y="0" width="320" height="48"></rect>
        <filter x="-3.3%" y="-21.9%" width="106.6%" height="143.7%" filterUnits="objectBoundingBox" id="filter-2">
            <feOffset dx="0" dy="0" in="SourceAlpha" result="shadowOffsetOuter1"></feOffset>
            <feGaussianBlur stdDeviation="3.5" in="shadowOffsetOuter1" result="shadowBlurOuter1"></feGaussianBlur>
            <feComposite in="shadowBlurOuter1" in2="SourceAlpha" operator="out" result="shadowBlurOuter1"></feComposite>
            <feColorMatrix values="0 0 0 0 0   0 0 0 0 0   0 0 0 0 0  0 0 0 0.14 0" type="matrix" in="shadowBlurOuter1"></feColorMatrix>
        </filter>
    </defs>
    <g id="Evendate-App" stroke="none" stroke-width="1" fill="none" fill-rule="evenodd">
        <g id="Catalog_2" transform="translate(-278.000000, -531.000000)">
            <rect id="bg" fill="#F4F4F4" x="0" y="0" width="320" height="584"></rect>
            <g id="Tab_bar" transform="translate(0.000000, 520.000000)">
                <g id="Tab_bar_blur">
                    <use fill="black" fill-opacity="1" filter="url(#filter-2)" xlink:href="#path-1"></use>
                    <use fill-opacity="0.8" fill="#FFFFFF" fill-rule="evenodd" xlink:href="#path-1"></use>
                </g>
                <g id="Profile" transform="translate(256.000000, 0.000000)">
                    <rect id="Tab_br" x="0" y="0" width="64" height="48"></rect>
                    <g id="briefcase-2" transform="translate(22.000000, 11.000000)" fill-rule="nonzero" fill="#A4AAB3">
                        <path d="M19.7704392,2.47572269 L14.6377356,2.47572269 L14.6377356,1.26304694 C14.6377356,0.573554276 14.0733746,0.0126986187 13.3796152,0.0126986187 L7.4595747,0.0126986187 C6.76581529,0.0126986187 6.20145429,0.573554276 6.20145429,1.26304694 L6.20145429,2.47572269 L1.1985324,2.47572269 C0.537740203,2.47572269 0,3.0101229 0,3.66702244 L0,10.7133166 C0,11.3599303 0.522065875,11.8853568 1.16884488,11.9014417 L1.16884488,18.5597931 C1.16884488,19.2492434 1.73320589,19.8100991 2.42696529,19.8100991 L18.4121394,19.8100991 C19.1058988,19.8100991 19.6702598,19.2492434 19.6702598,18.5597931 L19.6702598,11.9044471 L19.7703966,11.9044471 C20.4311888,11.9044471 20.968929,11.3700469 20.968929,10.713359 L20.968929,3.66702244 C20.9690142,3.0101229 20.431274,2.47572269 19.7704392,2.47572269 Z M7.04015863,1.26304694 C7.04015863,1.0332866 7.22833576,0.846278277 7.4595321,0.846278277 L13.3795726,0.846278277 C13.6107689,0.846278277 13.798946,1.0332866 13.798946,1.26304694 L13.798946,2.47572269 L7.04015863,2.47572269 L7.04015863,1.26304694 Z M18.8315554,18.5598354 C18.8315554,18.7895958 18.6433783,18.9766041 18.412182,18.9766041 L2.42700788,18.9766041 C2.19581154,18.9766041 2.00763441,18.7895958 2.00763441,18.5598354 L2.00763441,11.9044471 L4.45798342,11.9044471 L4.45798342,12.0817198 C4.45798342,12.6969255 4.96173418,13.1975474 5.58078496,13.1975474 C6.19983574,13.1975474 6.70337354,12.6969255 6.70337354,12.0817198 L6.70337354,11.9044471 L14.2657258,11.9044471 L14.2657258,12.0817198 C14.2657258,12.6969255 14.7694766,13.1975474 15.3885274,13.1975474 C16.0075782,13.1975474 16.511116,12.6969255 16.511116,12.0817198 L16.511116,11.9044471 L18.8316406,11.9044471 L18.8316406,18.5598354 L18.8315554,18.5598354 Z M5.29673036,12.0817198 L5.29673036,11.0127077 L5.86458401,11.0127077 L5.86458401,12.0817198 C5.86458401,12.2374048 5.73723009,12.3639677 5.58078496,12.3639677 C5.42408427,12.3639677 5.29673036,12.2373625 5.29673036,12.0817198 Z M15.1044302,12.0817198 L15.1044302,11.0127077 L15.6722838,11.0127077 L15.6722838,12.0817198 C15.6722838,12.2374048 15.5449299,12.3639677 15.3884848,12.3639677 C15.2318267,12.3639677 15.1044302,12.2373625 15.1044302,12.0817198 Z M20.1302247,10.713359 C20.1302247,10.9105685 19.9688813,11.0709097 19.7704392,11.0709097 L16.5110308,11.0709097 L16.5110308,10.1791704 L14.2656832,10.1791704 L14.2656832,11.0709097 L6.70333095,11.0709097 L6.70333095,10.1791704 L4.45798342,10.1791704 L4.45798342,11.0709097 L1.1985324,11.0709097 C1.0000903,11.0709097 0.838746937,10.9105685 0.838746937,10.713359 L0.838746937,3.66702244 C0.838746937,3.46981289 1.0000903,3.30926002 1.1985324,3.30926002 L6.2014117,3.30926002 L14.6377356,3.30926002 L19.7704392,3.30926002 C19.9688813,3.30926002 20.1302247,3.46981289 20.1302247,3.66702244 L20.1302247,10.713359 Z" id="Shape"></path>
                    </g>
                </g>
            </g>
        </g>
    </g>
</svg>