<?xml version="1.0" encoding="UTF-8" standalone="no"?>
<svg width="20px" height="20px" viewBox="0 0 20 20" version="1.1" xmlns="http://www.w3.org/2000/svg" xmlns:xlink="http://www.w3.org/1999/xlink">
    <!-- Generator: Sketch 39.1 (31720) - http://www.bohemiancoding.com/sketch -->
    <title>Cal</title>
    <desc>Created with Sketch.</desc>
    <defs></defs>
    <g id="320" stroke="none" stroke-width="1" fill="none" fill-rule="evenodd">
        <g id="Artboard" transform="translate(-245.000000, -127.000000)" fill="#9FA6B3">
            <g id="Tab_bar" transform="translate(96.000000, 116.000000)">
                <g id="Cal" transform="translate(128.000000, 0.000000)">
                    <g transform="translate(21.000000, 11.000000)" id="Group">
                        <g>
                            <path d="M6.93650794,4.94117647 L6.93650794,0.682352941 C6.93650794,0.305882353 6.62698413,4.4408921e-16 6.24603175,4.4408921e-16 C5.86507937,4.4408921e-16 5.55555556,0.305882353 5.55555556,0.682352941 L5.55555556,4.94117647 C5.55555556,5.31764706 5.86507937,5.62352941 6.24603175,5.62352941 C6.62698413,5.62352941 6.93650794,5.31764706 6.93650794,4.94117647 L6.93650794,4.94117647 Z" id="Shape"></path>
                            <path d="M14.7142857,4.94117647 L14.7142857,0.682352941 C14.7142857,0.305882353 14.4047619,4.4408921e-16 14.0238095,4.4408921e-16 C13.6428571,4.4408921e-16 13.3333333,0.305882353 13.3333333,0.682352941 L13.3333333,4.94117647 C13.3333333,5.31764706 13.6428571,5.62352941 14.0238095,5.62352941 C14.4047619,5.62352941 14.7142857,5.31764706 14.7142857,4.94117647 L14.7142857,4.94117647 Z" id="Shape"></path>
                            <path d="M6.57142857,14.4444444 L4.02380952,14.4444444 C3.64285714,14.4444444 3.33333333,14.7503268 3.33333333,15.1267974 C3.33333333,15.503268 3.64285714,15.8091503 4.02380952,15.8091503 L6.57142857,15.8091503 C6.95238095,15.8091503 7.26190476,15.503268 7.26190476,15.1267974 C7.26190476,14.7503268 6.95238095,14.4444444 6.57142857,14.4444444 L6.57142857,14.4444444 Z" id="Shape"></path>
                            <path d="M3.33333333,11.7934641 C3.33333333,12.1699346 3.64285714,12.475817 4.02380952,12.475817 L6.57142857,12.475817 C6.95238095,12.475817 7.26190476,12.1699346 7.26190476,11.7934641 C7.26190476,11.4169935 6.95238095,11.1111111 6.57142857,11.1111111 L4.02380952,11.1111111 C3.64285714,11.1111111 3.33333333,11.4169935 3.33333333,11.7934641 L3.33333333,11.7934641 Z" id="Shape"></path>
                            <path d="M11.0396825,7.77777778 L8.46825397,7.77777778 C8.08730159,7.77777778 7.77777778,8.08366013 7.77777778,8.46013072 C7.77777778,8.83660131 8.08730159,9.14248366 8.46825397,9.14248366 L11.015873,9.14248366 C11.3968254,9.14248366 11.7063492,8.83660131 11.7063492,8.46013072 C11.7063492,8.08366013 11.4206349,7.77777778 11.0396825,7.77777778 L11.0396825,7.77777778 Z" id="Shape"></path>
                            <path d="M11.0396825,14.4444444 L8.46825397,14.4444444 C8.08730159,14.4444444 7.77777778,14.7503268 7.77777778,15.1267974 C7.77777778,15.503268 8.08730159,15.8091503 8.46825397,15.8091503 L11.015873,15.8091503 C11.3968254,15.8091503 11.7063492,15.503268 11.7063492,15.1267974 C11.7063492,14.7503268 11.4206349,14.4444444 11.0396825,14.4444444 L11.0396825,14.4444444 Z" id="Shape"></path>
                            <path d="M11.0396825,11.1111111 L8.46825397,11.1111111 C8.08730159,11.1111111 7.77777778,11.4169935 7.77777778,11.7934641 C7.77777778,12.1699346 8.08730159,12.475817 8.46825397,12.475817 L11.015873,12.475817 C11.3968254,12.475817 11.7063492,12.1699346 11.7063492,11.7934641 C11.7063492,11.4169935 11.4206349,11.1111111 11.0396825,11.1111111 L11.0396825,11.1111111 Z" id="Shape"></path>
                            <path d="M13.3333333,8.46013072 C13.3333333,8.83660131 13.6428571,9.14248366 14.0238095,9.14248366 L16.5714286,9.14248366 C16.952381,9.14248366 17.2619048,8.83660131 17.2619048,8.46013072 C17.2619048,8.08366013 16.952381,7.77777778 16.5714286,7.77777778 L14.0238095,7.77777778 C13.6428571,7.77777778 13.3333333,8.08366013 13.3333333,8.46013072 L13.3333333,8.46013072 Z" id="Shape"></path>
                            <path d="M14.0238095,15.8091503 L16.5714286,15.8091503 C16.952381,15.8091503 17.2619048,15.503268 17.2619048,15.1267974 C17.2619048,14.7503268 16.952381,14.4444444 16.5714286,14.4444444 L14.0238095,14.4444444 C13.6428571,14.4444444 13.3333333,14.7503268 13.3333333,15.1267974 C13.3333333,15.503268 13.6428571,15.8091503 14.0238095,15.8091503 L14.0238095,15.8091503 Z" id="Shape"></path>
                            <path d="M14.0238095,12.475817 L16.5714286,12.475817 C16.952381,12.475817 17.2619048,12.1699346 17.2619048,11.7934641 C17.2619048,11.4169935 16.952381,11.1111111 16.5714286,11.1111111 L14.0238095,11.1111111 C13.6428571,11.1111111 13.3333333,11.4169935 13.3333333,11.7934641 C13.3333333,12.1699346 13.6428571,12.475817 14.0238095,12.475817 L14.0238095,12.475817 Z" id="Shape"></path>
                            <path d="M17.3671498,2 L16.1111111,2 C15.7246377,2 15.410628,2.31967213 15.410628,2.71311475 C15.410628,3.10655738 15.7246377,3.42622951 16.1111111,3.42622951 L17.3671498,3.42622951 C18.0434783,3.42622951 18.5990338,3.99180328 18.5990338,4.68032787 L18.5990338,17.3196721 C18.5990338,18.0081967 18.0434783,18.5737705 17.3671498,18.5737705 L2.63285024,18.5737705 C1.95652174,18.5737705 1.40096618,18.0081967 1.40096618,17.3196721 L1.40096618,4.68032787 C1.40096618,3.99180328 1.95652174,3.42622951 2.63285024,3.42622951 L3.88888889,3.42622951 C4.27536232,3.42622951 4.58937198,3.10655738 4.58937198,2.71311475 C4.58937198,2.31967213 4.27536232,2 3.88888889,2 L2.63285024,2 C1.18357488,2 0,3.20491803 0,4.68032787 L0,17.3196721 C0,18.795082 1.18357488,20 2.63285024,20 L17.3671498,20 C18.8164251,20 20,18.795082 20,17.3196721 L20,4.68032787 C20,3.20491803 18.8164251,2 17.3671498,2 L17.3671498,2 Z" id="Shape"></path>
                            <path d="M12.7301587,2.68235294 C12.7301587,2.30588235 12.4206349,2 12.0396825,2 L8.46825397,2 C8.08730159,2 7.77777778,2.30588235 7.77777778,2.68235294 C7.77777778,3.05882353 8.08730159,3.36470588 8.46825397,3.36470588 L12.015873,3.36470588 C12.4206349,3.36470588 12.7301587,3.05882353 12.7301587,2.68235294 L12.7301587,2.68235294 Z" id="Shape"></path>
                        </g>
                    </g>
                </g>
            </g>
        </g>
    </g>
</svg>