<?xml version="1.0" encoding="UTF-8" standalone="no"?>
<svg width="26px" height="20px" viewBox="0 0 26 20" version="1.1" xmlns="http://www.w3.org/2000/svg" xmlns:xlink="http://www.w3.org/1999/xlink">
    <!-- Generator: Sketch 39.1 (31720) - http://www.bohemiancoding.com/sketch -->
    <title>friends_icon</title>
    <desc>Created with Sketch.</desc>
    <defs>
        <path d="M9.5,11 C6.46284211,11 4,8.53715789 4,5.5 C4,2.46284211 6.46284211,0 9.5,0 C12.5371579,0 15,2.46284211 15,5.5 C15,8.53715789 12.5371579,11 9.5,11 Z" id="path-1"></path>
        <mask id="mask-2" maskContentUnits="userSpaceOnUse" maskUnits="objectBoundingBox" x="0" y="0" width="11" height="11" fill="white">
            <use xlink:href="#path-1"></use>
        </mask>
        <path d="M18,19 L18,16.9030385 C18,15.3063673 16.5132159,14 14.6960352,14 L3.30396476,14 C1.48678414,14 0,15.3063673 0,16.9030385 L0,19 L18,19 Z" id="path-3"></path>
        <mask id="mask-4" maskContentUnits="userSpaceOnUse" maskUnits="objectBoundingBox" x="0" y="0" width="18" height="5" fill="white">
            <use xlink:href="#path-3"></use>
        </mask>
    </defs>
    <g id="320" stroke="none" stroke-width="1" fill="none" fill-rule="evenodd">
        <g id="Artboard" transform="translate(-308.000000, -128.000000)" stroke="#9FA6B3">
            <g id="Tab_bar" transform="translate(96.000000, 116.000000)">
                <g id="Friends" transform="translate(192.000000, 0.000000)">
                    <g id="friends_icon" transform="translate(20.000000, 12.000000)">
                        <g id="Profile" transform="translate(14.000000, 3.000000)">
                            <path d="M3.5,9 C2.16380226,9 1.18818689,8.6426796 0.363952637,7.71765137 C2.52606201,6.16900635 3.50000004,2.55059814 2.35339359,0.237915039 C2.35339359,0.237915039 2.87332975,-4.65439319e-13 3.5,-4.65439319e-13 C5.98494737,-4.65439319e-13 8,2.01505263 8,4.5 C8,6.98494737 5.98494737,9 3.5,9 Z" id="Stroke-1"></path>
                            <path d="M5.41656494,16 L11,16 L11,14.3224308 C11,13.0450939 9.76101322,12 8.24669604,12 L5,12 C5.55450439,13.4755249 5.58978271,15.06427 5.41656494,16 Z" id="Stroke-3"></path>
                        </g>
                        <g id="Profile" stroke-width="2">
                            <use id="Stroke-1" mask="url(#mask-2)" xlink:href="#path-1"></use>
                            <use id="Stroke-3" mask="url(#mask-4)" xlink:href="#path-3"></use>
                        </g>
                    </g>
                </g>
            </g>
        </g>
    </g>
</svg>